<?xml version="1.0" encoding="UTF-8"?>
<svg id="Layer_1" data-name="Layer 1" xmlns="http://www.w3.org/2000/svg" viewBox="0 0 1024 1024">
  <defs>
    <style>
      .cls-1 {
        fill: #fbf7f2;
      }

      .cls-2 {
        fill: #110906;
      }

      .cls-3 {
        fill: #1e120e;
      }

      .cls-4 {
        fill: #382519;
      }

      .cls-5 {
        fill: #1a100b;
      }

      .cls-6 {
        fill: #060202;
      }

      .cls-7 {
        fill: #362417;
      }

      .cls-8 {
        fill: #fdf9f4;
      }

      .cls-9 {
        fill: #fdfcfb;
      }

      .cls-10 {
        fill: #362317;
      }

      .cls-11 {
        fill: #fcf7f3;
      }

      .cls-12 {
        fill: #372418;
      }

      .cls-13 {
        fill: #fbf6f2;
      }

      .cls-14 {
        fill: #fbf7f3;
      }

      .cls-15 {
        fill: #2a1f1a;
      }

      .cls-16 {
        fill: #241812;
      }
    </style>
  </defs>
  <path class="cls-8" d="M1024,0v1024H0V0h1024ZM407,192c-19.47,12.68-35.99,32.3-48,52-9.08,14.9-14.6,28.01-19,45-.2.78-.68,1.62-1,3-.37,1.63-.71,4.19-1,6-.15.94-.79,1.91-1,4-.07.66.06,1.34,0,2-1.6.71-.83,2.74-1,4-.04.33.04.67,0,1-4.2,32.97-3.68,80.85-2.05,114.55,1.94,40.02,18.61,81.59,46.05,109.45,1.41,1.43,2.47,2.58,4,4,2.8,3.79,6.56,6.84,10,10,5.41,4.96,10.02,8.73,16,13,43.62,31.12,92.31,39.57,144,27,12.53-3.05,31.69-7.22,42-16,6.58-3.04,12.15-6.85,18-11,5.4-3.83,10.04-7.61,15-12,.81-.72,1.37-1.42,2-2,.35-.32.66-.68,1-1,3.92-3.63,7.38-7.08,11-11,.32-.34.68-.65,1-1,.63-.7,1.38-1.3,2-2,6.33-7.14,10.82-12.93,16-21s9.03-15.07,13-24c8.56-19.27,13.83-39.28,14.99-60.51,1.65-30.17,1.6-69.83.05-100.03-2.22-43.18-18.87-80.78-48.04-111.46-.33-.34-.67-.66-1-1-1.69-1.75-3.25-3.31-5-5-1.37-1.32-2.59-2.73-4-4-2.36-2.13-4.55-3.99-7-6-20.96-17.18-45.25-29.37-71.99-35.51-50.5-11.6-104.62-1.74-146.01,29.51ZM245,636c-4.27,2.79-5.68,4.33-9,8-19.82,21.86-18.56,58.97,5,77,8.25,6.31,13.36,8.35,24,9,18.04,1.1,32.3-4.43,43-19,14.7-20.03,13.88-49.07-2-68-.31-.36-.68-.66-1-1-6.73-7.09-10.3-9.51-20-12-14.23-3.65-27.62-2.08-40,6ZM358,631c-9.86-2.3-20.87-.37-31-1.01-1.83,10.24,3.46,6.25,10,10.01.09.28-.08.67,0,1,2.15,9.31.1,15.79-.04,24.46-.29,17.6,1.54,38.1-3.96,54.54-1.35,1.53-7.67,1.75-7.96,2.04-.48.49.23,5.52-.04,6.96h32c1.68-11.19-3.32-6.08-8-8-3.68-1.51-3.02-16.78-3.05-20.54-.04-6.15.88-13.34,1.05-19.46.28-10-.77-20.12,1-30,.27-.33.67-.82,1-1l29.66,79.04,6.23-.16,31.11-76.88c.32-.02.78-.07,1,0,.23,14.83-.3,29.71-.04,44.54.12,6.86,4.63,21.47-3.96,24.46-5.82,2.02-6.79-1.41-6,8h39c-.31-1.55.53-6.17-.1-6.9-1.14-1.34-8.6.94-9.84-6.65l-2.06-67.44c-.23-2.81-.08-7.3,2.43-9.07,4.77-3.37,10.52,1.97,8.57-8.93h-29.5l-27.51,67-2.22-1.28-27.77-64.72ZM538,641c-6.33-5.26-19.33-11-27.5-11h-50.5c.31,1.55-.53,6.17.1,6.9,1.83,2.11,9.15-1.23,9.9,6.59,1.74,18.32,1.42,52.47.05,71.06-.08,1.05-.62,5.06-1.05,5.45-.53.48-4.17.35-5,2-.83,0-2.51-.19-3,0-1.66.64-1.63,6.23,0,7,.22.1.64-.05,1,0,2.07.29,4.78-.05,7,0,2,.04,4-.02,6,0,1.33.01,2.67,0,4,0,2,.01,4,.01,6,0,.33,0,.67,0,1,0,3.32-.03,6.68.09,10,0,.33,0,.67.01,1,0,1.99-.07,4.02.13,6,0,2.11-.13,2.84-.98,3-1,1.63-.19,3.36.13,5,0,.85-.07,1.73-.02,2-1,8.01-.7,17.37-4.35,23-10,.33-.33.68-.65,1-1,4.08-2.22,9.16-9.05,11.18-13.33,7.62-16.2,7.34-41.34-4.18-55.67-.76-.95-5.03-5.2-6-6ZM623,644c1.03,1.53,2.71,9.56,3.1,9.9.75.65,6.24-.22,7.91.1l-2-24h-68c1.55,1.77.47,5.85,1.13,6.87.46.72,5.6,1.12,6.87,2.13.6.93,1.69.31,2.06,3.43,1.99,16.92,1.29,54.56-.01,72.12-.08,1.09-.58,4.97-1.05,5.45-.11.11-2.07.43-3,1-.07.04-.89,0-1.67.34-.53.23.41,2.08-3.33,1.66-.11-.01-.23-.97-.49-.98-.61.17-.43.56-.51.98-.17.88-.14,3.08,0,4,.11.72-.5,2.13.6,2.02,19.79-.28,39.63.31,59.4-.02.67-.01,1.33.02,2,0,2.33-.06,8.44.69,9.56-.93-.43-4.25,4.31-23.66,1.5-25.63-6-4.19-8.85,5.39-10.07,9.56-12.22,9.99-15.93,6.63-31,7-2.28-.7-1.95-2.58-2.06-4.45-.6-10.49,1.03-21.15-.94-31.55,4.84.71,16.48-1.35,20.3.97,2.33,1.42,1.34,9.66,1.7,10.03.32.34,6.54-.25,8.01,0v-31h-8.01c-.56,3.27,1.74,8.23-1.99,10-6.61,1.21-13.29,1.1-20,1v-34c.17-.31.69-.83,1-1,5.97-.21,12.04.29,18,0,4.9,1.39,6.93,2.07,11,5ZM707,645c1.33,1.43,2.71,9.56,3.1,9.9.75.65,6.23-.22,7.91.11l-2-25h-67c-.1,5.92-1.48,7.34,5,8,.48.29,2.7-.36,3.53.94s-.21,4.12,1.47,4.06v36c-1.66,1.04-1,3.8-1.02,5.49-.11,10.83.24,21.7.02,32.51-2.8,6.97-11.7.92-9,12h70l3-27c-1.57.3-7.45-.44-7.99.03-.34.3.23,2.28-.01,2.97-.97,2.76-3.85,8.7-6.06,10.44-.75.59-7.98,3.56-8.44,3.56h-21.5v-36c4.42-.55,10.18,1.24,14-1h2c.23.44.67.67,1,1,1.27,1.25,2.95,2.05,3.57,3.93,2.2,6.75-3.41,7.86,8.43,7.07v-31c-1.47.24-7.68-.35-8.01,0s.34,7.31-.99,9.01c-6.4,1.35-14.79,1.91-21,0v-32c.93-2.07,23.64-1.44,27,2,.47.42,1.85.42,2.69,1.3.47.49.18,1.55.31,1.7ZM791,635c-2.95-2.11-6.41-5-10.5-5h-49.5c-1.18,8.26.99,7.42,8,9,.34.33.64.66,1,1,.56,1.78.95,3.56,1.04,5.45.92,19.46,1.66,49.02-.05,68.03-.09,1.05-.92,6.05-1.17,6.33-2.42,2.71-11.8-1.32-8.82,9.18h40c1.79-10.51-3.16-5.69-8.39-9.11s-1.54-23.62-2.61-29.89c3.65-.13,7.36.18,11,0,.99-.05,2.02.09,3,0,9.56-.9,17.68-3.76,24-11,9.82-11.25,9.63-26.31,1-38-.28-.38-.69-.65-1-1-.13-.15.21-1.23-.29-1.69-1.99-1.87-4.04-3.01-6.71-3.31ZM290,768c5.64-1.62,6.27-.8,4.99-7-1.07-.37-2.18,1-2.49,1h-25.5v5c7.3-.97,5.5.58,8,6-.43,12.88,1.77,31.13,0,43-1.28,8.6-10,2.37-8,11h28c1.33-9.54-5.92-.91-6.99-11.51-1.4-13.89-.55-34.11,1.99-47.49ZM373,763c-.08-.65.06-1.35,0-2-3.04,2.34-22.11.08-23,.99-1.72,8.38,4.26,2.61,7.84,7.67l1.17,36.34c-11.6-12.98-20.05-29.56-32-42-.14-.15.33-1.45-.13-1.83l-1.3-.25c-5.03.27-10.09-.12-15.11.07-1.92.08-4.01-1.03-3.45,2-.24.35.14,2.16,0,3l8.07,1.62v47.94c.18,2.47-1.98,3.56-3.06,5.45h-5.01s0,5,0,5h23c-.19-1.11.3-4.72,0-5-.57-.54-6.01,1.56-6.97-3.53l-1.03-39.47c1.28-2.2.63-.45,1.25.26,9.7,11.05,17.76,25.22,27.75,36.74,3.82,6.03,6.13,14,15,12,.72-15.26-.97-31.38-.05-46.55.19-3.07.84-12.84,3.07-13.96,2.72-1.35,3.7,1.11,3.97-2.5.05-.62.07-1.4,0-2ZM607,771c.91-1.02.74-2.71,2.22-3.34,4.43-1.9,5.55,1.69,4.78-6.66-8.92,1.32-19.18,1.88-27.98,0-1.28,8.16,1.55,4.85,6.99,8,1.69,16.82,1.51,34.17,0,51-4.67,2.44-8.34.19-7,7h28c1.52-6.79-3.03-4.39-7-8v-48ZM642,765c-3.44,2.02-4.1,3.13-6,6-8.61,6.28-10.84,17.98-10.04,28.54,2.23,29.25,39.04,38.71,57.04,17.46,11.07-13.07,11.08-31.41,1-45-.28-.38-.7-.64-1-1-1.77-2.13-1.13-1.36-3-3-.35-.31-.63-.72-1-1-10.28-7.73-25.71-8.64-37-2ZM440,779c-.5-6.03-1.25-10.65,0-17h-56c1.19,3.2-2.26,16.28-.87,17.88.27.31,3.88.84,4.86,1.13.96-7.56,2.05-8.78,8.01-12.01.38-.21.69-.87,1-1h8.01c.07,1.98-.1,4.01,0,6,.02.33,0,.67,0,1,.02.67-.01,1.33,0,2,.21,12.78.99,28.51,0,41-.34.31-.76.61-1,1-.36.59-.63,1.61-1,2-5.25,1.08-8.19-.59-7,6h31c2.17-9.09-7.63-2.19-8.93-10.57l-.07-48.43c.53-.53,9.51.38,11,1,.22.09,3.01,2.76,3.32,3.28,2.88,4.71.62,10.44,7.69,8.72-.03-.66.05-1.34,0-1.99ZM492,771c1.39,4.86.84,8.28,7,7v-14.5c0-.11-1.39-1.5-1.5-1.5h-46.5c-1.94,8.24,4.95,2.67,7,8.5l-1,50.5c-5.09.68-6.94.11-6,6h47.5c.2,0,1.1,1.41,1.49,1.01l2.01-19.01c-5.34-.84-6.27,1.22-7,6-1.1.97-5.9,4.33-6,5l-16,1c-.04-.51-1.24-3.11-2-3v-21c2.15-.71,7.33.5,10,0,.85.19,2.06-.13,3,0,.11.08,1.92,1.88,2,2v6.01s5.01,0,5.01,0l1-21.01c-5.68-.11-6.69-1.31-6,5-1.44.25-1.58,1.73-2,2h-13.01s0-23,0-23c6.93,0,13.47-.7,20,2,.35.37.77.73,1,1ZM564,814l-9-17.98c13.36-3.36,18.29-20.44,7.02-29.54-1.4-1.13-7.25-4.48-8.52-4.48h-37.5c-1.36,7.19,2.4,3.92,7,7-.7,6.48,1.33,50.16-1,52-2.09,1.65-7.84-1.69-6,6h27c1.1-7.02-1.43-4.01-4.42-6.07-3.86-2.66.39-13.74-2.58-17.93v-5c1.76-.59,5.08.63,7,1,2.83,4.7,4.24,11.16,8,15,1.19,2.83.98,3.65,3,7,.75,1.24,3.3,6,4.5,6h17.5c.93-6.47-.89-4.62-6-6-.77-1.2-5.25-6.98-6-7ZM743,763c-10.66-3.48-29.34.51-41-.99.76,5.89,2.28,4.76,7,6.99.68,15.03,2.84,34.27,0,49-.22,1.16-.74,2.04-1,3-4.52.55-5.63,1.29-6,6h28c1.85-7.78-3.93-3.98-6-6-1.82-1.77-1.03-19.33-.52-22.98,1.77,1.41,4.3.44,6.04,1.97s8.73,17.83,11.48,22.02c.96,1.46.86,3.96,3.71,4.79,4.72,1.37,13.09-.57,18.29.21.85-7.17-.84-3.91-4.74-5.76-.82-.39-4.69-3.56-5.26-4.25-4.09-4.95-6.3-13.93-11-19-.62-6.49,3.23-2.92,7-6,10.67-8.72,6.7-24.85-6-29Z"/>
  <g>
    <g>
      <path class="cls-7" d="M743,765c9.44,2.47,11.51,11.16,9.55,20.1-.82,3.74-3.8,3.14-3.55,6.9-3.77,3.08-7.62-.49-7,6,.53,5.57,6.41,14.37,10,19,1.36,1.75,1.07,3.1,3.82,4.68,3.37,1.94,6.07.1,5.18,4.31-7.5-.35-15.24,2.12-20.01-5-.2-3.37-9.89-23.02-11.2-23.78-1.38-.8-8.46-.18-8.84,1.45-.71,3.04.02,18.46,1.07,21.62.41,1.23,1.83.57,1.97.72.37.38-.77,3.12,4.01,2v2h-24.01v-2c1.39.05,2.77.08,4.09-.49s-.11-1.44-.09-1.51c.26-.96.78-1.84,1-3,2.71,1.78,1.9.98,2-1.49.52-12.87,1.18-31.57.06-44.08-.08-.94.02-1.85-.26-2.79-.36-1.26-1.4-1.23-1.8-1.65-1.97-2.09-3.73-1.91-5-3.99,12.02,1.14,27.56-2.01,39,.99ZM723,768c-.11-.01-.74-1.44-1.99-1,.92,5.36-1.62,23.92.88,27.41,1.99,2.78,11.6-1.01,14.11-2.42,6.68-3.74,9.76-12.96,5.08-19.39-.79-1.09-1.87-.45-2.08-.61-1.05-.8-1.2-.67-2-2-.17-.29.33-1.61-.06-1.91-.55-.42-3.71-.05-4.94-.09-2.87-.1-6.31.36-9,0Z"/>
      <path class="cls-10" d="M679,767c.37.28.65.69,1,1-.08,1.98.98,3.08,3,3,.3.36.72.62,1,1,6.8,12.09,8.41,34.48-2,45-11.15,11.26-32.97,13.22-44.4,2.42-.64-.6-2.21-.59-3.04-1.44-3.09-3.15-7.41-16.87-7.4-21.45.01-9.47,3.75-17.87,8.84-25.53,1.9-1.39,3.92-2.87,6-4,11.96-6.47,24.81-5.09,37,0ZM646,816c.25.31.68.66,1,1,.21.23.07,1.54,1.59,2.87,7.16,6.27,14.92,5.22,21.41-.87,9.41-8.84,11.11-25.39,6-37-4.18-23.76-32.73-22.63-36.55,2.95-1.77,11.83-.67,21.99,6.55,31.05Z"/>
      <path class="cls-3" d="M607,819c3.97,3.61,8.52,1.21,7,8h-28c-1.34-6.81,2.33-4.56,7-7v1c-1.66,1.83-2,2.37-5.01,2.01-.77,2.38,1.17,1.99,3.51,1.99h16c.61,0,1.53-1.67,1.53-2.5,0-.61-1.63-.35-2-1.22-.33-.76.12-1.73-.02-2.28Z"/>
      <path class="cls-3" d="M743,763v2c-11.44-3-26.98.15-39-.99,1.27,2.08,3.03,1.9,5,3.99v1c-4.72-2.23-6.24-1.1-7-6.99,11.66,1.5,30.34-2.49,41,.99Z"/>
      <path class="cls-5" d="M290,767v1c-2.53,13.38-3.39,33.6-1.99,47.49,1.07,10.6,8.32,1.97,6.99,11.51h-28c-2-8.63,6.72-2.4,8-11h1c-.46,4.47-1.85,7.51-7,7.01-.07.64,1.33,1.99,1.5,1.99h23.5l-6.05-4.45-1-2.99.04-48.07c.53-2.94,1.87-1.82,3.01-2.49Z"/>
      <path class="cls-3" d="M642,767c-2.08,1.13-4.1,2.61-6,4-5.09,7.67-8.83,16.06-8.84,25.53,0,4.58,4.31,18.3,7.4,21.45.84.85,2.4.84,3.04,1.44,11.42,10.8,33.25,8.84,44.4-2.42h1c-18,21.25-54.81,11.79-57.04-17.46-.8-10.55,1.42-22.25,10.04-28.54,1.9-2.87,2.56-3.98,6-6v2Z"/>
      <path class="cls-5" d="M724,821c-.15-.15-1.57.51-1.97-.72-1.05-3.16-1.77-18.58-1.07-21.62.38-1.63,7.46-2.25,8.84-1.45s11,20.42,11.2,23.78v1c-2.76-4.18-9.8-20.53-11.48-22.02s-4.27-.55-6.04-1.97c-.51,3.66-1.3,21.21.52,22.98,2.07,2.02,7.85-1.78,6,6h-28c.37-4.71,1.48-5.45,6-6-.02.07,1.47.91.09,1.51s-2.71.55-4.1.49v2h24.01v-2c-4.77,1.12-3.63-1.63-4-2Z"/>
      <path class="cls-5" d="M593,769c-5.44-3.15-8.27.16-6.99-8,8.8,1.89,19.07,1.32,27.98,0,.77,8.35-.34,4.76-4.78,6.66-1.47.63-1.3,2.32-2.22,3.34l-1-1c-.13-5.17,6.94-2.51,6.99-6.99-.96-.83-12.88,1.05-15.49,1.06-3.34.01-9.14-3.47-9.51,1.93,3.19-.49,3.39.43,5,2.01v1Z"/>
      <path class="cls-5" d="M679,767c-12.19-5.09-25.04-6.47-37,0v-2c11.29-6.64,26.72-5.73,37,2Z"/>
      <path class="cls-5" d="M683,817h-1c10.41-10.52,8.8-32.91,2-45,10.08,13.59,10.07,31.93-1,45Z"/>
      <path class="cls-2" d="M275,773c-2.5-5.41-.7-6.97-8.01-6v-5h25.51c.31,0,1.43-1.37,2.49-1,1.28,6.19.64,5.37-4.99,7v-1c1.65-.96,4.39-1.67,3.99-3.99-8.62,0-16.37,1.33-24.99,0,.17,4.24,6.15,1.85,6.99,6.99-1.3.48-.96,1.9-1,3Z"/>
      <path class="cls-6" d="M593,821v-1c1.51-16.83,1.69-34.18,0-51v-1c.46.45,1.44.42,1.8,1.65.28.94.17,1.84.26,2.78.94,10.35,1.12,33.96-.03,44.09-.28,2.44-.45,2.73-2.03,4.47Z"/>
      <path class="cls-6" d="M709,768c.4.42,1.44.4,1.8,1.65.27.94.17,1.84.26,2.79,1.12,12.51.46,31.21-.06,44.08-.1,2.46.71,3.26-2,1.49,2.84-14.73.68-33.97,0-49v-1Z"/>
      <path class="cls-2" d="M753,817c.57.69,4.44,3.86,5.26,4.25,3.9,1.85,5.59-1.41,4.74,5.76-5.2-.78-13.58,1.15-18.29-.21-2.86-.83-2.75-3.33-3.71-4.79v-1c4.76,7.12,12.51,4.64,20.01,5,.89-4.21-1.81-2.37-5.18-4.31-2.75-1.58-2.47-2.93-3.82-4.68h1Z"/>
      <path class="cls-6" d="M607,771v48c-3.58-13.8.59-34.27-1-49l1,1Z"/>
      <path class="cls-6" d="M276,816h-1c1.77-11.87-.43-30.12,0-43,.04-1.1-.3-2.52,1-3-1.11,14.72,1.5,31.55,0,46Z"/>
      <path class="cls-5" d="M749,792c-.26-3.76,2.73-3.16,3.55-6.9,1.96-8.94-.11-17.62-9.55-20.1v-2c12.7,4.15,16.67,20.28,6,29Z"/>
      <path class="cls-16" d="M742,798c4.7,5.07,6.91,14.05,11,19h-1c-3.59-4.63-9.47-13.43-10-19Z"/>
      <g>
        <path class="cls-10" d="M327,764c11.95,12.44,20.4,29.02,32,42,1.58-.02.94-2.29,1.01-3.49.37-6.95,1.13-25-.03-30.98-.19-.97-2.61-4.71-3.29-5.21-.61-.45-7.04-1.44-4.69-3.31.88-.71,18.01.51,20.99,0,.07.6.05,1.38,0,2-2.72-.45-8,1.43-8,4.5v56.5c-1.69-.25-4.43.56-5.8-.22-.55-.32-6.8-8.17-8.2-9.78-9.99-11.52-18.05-25.69-27.75-36.74-.62-.71.03-2.46-1.25-.26-.9,1.55-.94,1.39-1.06,3.41-.53,8.81-1.02,26.74.15,35.04.94,6.69,7.48,3.04,6.92,8.55-6.37.76-12.98-1.26-19,0-.71-4.69,1.1-2.28,2.99-3,4.81-1.82,4.66-5.41,5.29-10.17,1.14-8.62.5-29.46-.25-38.37-.16-1.87-.97-6.52-1.93-7.85s-5.42.4-5.11-3.61c5.15-.74,11.86.15,17,1Z"/>
        <path class="cls-15" d="M310,763c-.31,4.01,4.11,2.22,5.11,3.61s1.77,5.98,1.93,7.85c.75,8.91,1.39,29.74.25,38.37-.63,4.76-.47,8.36-5.29,10.17v-1c1.08-1.88,3.24-2.98,3.06-5.45v-47.94s-8.06-1.62-8.06-1.62c.15-.84-.23-2.64,0-3,.09-.13,2.78-.97,3-1Z"/>
        <path class="cls-2" d="M373,765c-.27,3.61-1.25,1.15-3.97,2.5-2.24,1.11-2.89,10.89-3.07,13.96-.92,15.17.77,31.28.05,46.55-8.87,2-11.19-5.97-15-12,1.4,1.62,7.65,9.47,8.2,9.78,1.37.78,4.11-.03,5.8.22v-56.5c0-3.07,5.28-4.95,8-4.5Z"/>
        <path class="cls-2" d="M322,779l1.03,39.47c.96,5.09,6.4,2.99,6.97,3.53.3.28-.19,3.89,0,5h-23v-5.01s5,0,5,0v1c-1.89.71-3.7-1.69-2.99,3,6.02-1.26,12.63.75,19,0,.56-5.5-5.97-1.85-6.92-8.55-1.17-8.3-.68-26.23-.15-35.04.12-2.01.16-1.86,1.06-3.41Z"/>
        <path class="cls-2" d="M373,763c-2.99.52-20.11-.7-20.99,0-2.35,1.88,4.07,2.86,4.69,3.31.68.5,3.1,4.24,3.29,5.21,1.15,5.98.4,24.04.03,30.98-.06,1.21.57,3.47-1.01,3.49l-1.17-36.34c-3.58-5.06-9.56.71-7.84-7.67.89-.91,19.96,1.35,23-.99.07.65-.07,1.35,0,2Z"/>
        <path class="cls-2" d="M307,764c-.56-3.03,1.53-1.92,3.45-2,5.02-.2,10.08.2,15.11-.07l1.3.25c.46.38,0,1.68.13,1.83-5.14-.85-11.85-1.74-17-1-.22.03-2.91.87-3,1Z"/>
      </g>
      <path class="cls-5" d="M683,771c-2.02.08-3.08-1.02-3-3,1.87,1.64,1.23.87,3,3Z"/>
      <g>
        <path class="cls-7" d="M396,769l-4.05.46-6.95,9.54c.32-2.35-1.07-14.99,1.49-14.99h51.5v15c-3.35.01-1.42-2.09-3.12-5.38-1.54-2.96-3.66-3.3-5.88-4.62-2.49-1.49-2.22-2.6-6.54-3-5.96-.55-3.72,1.27-4.46,2-.17.17-2.39-.56-2.08,1.43,1.32,14.3-1.54,30.96.2,44.95.98,7.88,3.72,6.21,8.88,10.62h-27v-1.99c3.1.43,3.33-.28,5-2.01.37-.39.64-1.41,1-2h1c1.66-1.04,1-3.79,1.02-5.49.14-11.45.17-21.6,1.02-33.02.14-1.85.81-4.1-2.04-3.5-.01-.67.02-1.33,0-2,.33-.31.78-.61,1-1,1.66-2.88-.45-4.62,0-8.01-3.37-.48-6.07.79-9,2.01-.31.13-.62.79-1,1Z"/>
        <path class="cls-3" d="M396,769c-5.96,3.23-7.05,4.45-8.01,12.01-.98-.29-4.59-.82-4.86-1.13-1.39-1.6,2.06-14.68.87-17.88h56c-1.25,6.35-.5,10.97,0,17-.67,0-1.33,0-2,0v-15h-51.5c-2.56,0-1.17,12.64-1.49,14.99l6.95-9.54,4.05-.46Z"/>
        <path class="cls-3" d="M429,769c-1.49-.62-10.47-1.53-11-1l.07,48.43c1.3,8.38,11.1,1.48,8.93,10.57h-31c-1.19-6.59,1.75-4.92,7-6-1.67,1.73-1.9,2.44-5.01,2.01v1.99h27.01c-5.16-4.4-7.9-2.74-8.88-10.62-1.74-13.99,1.12-30.65-.2-44.95-.3-1.99,1.92-1.26,2.08-1.43.74-.74-1.5-2.55,4.46-2,4.32.4,4.05,1.51,6.54,3Z"/>
        <path class="cls-2" d="M405,777c2.85-.6,2.18,1.64,2.04,3.5-.85,11.42-.88,21.57-1.02,33.02-.02,1.69.64,4.45-1.02,5.49.02-.33-.03-.67,0-1,.99-12.49.21-28.22,0-41Z"/>
        <path class="cls-2" d="M429,769c2.22,1.33,4.34,1.67,5.88,4.62,1.71,3.29-.23,5.39,3.12,5.38.67,0,1.33,0,2,0,.05.66-.02,1.34,0,1.99-7.07,1.72-4.81-4.01-7.69-8.72-.31-.51-3.1-3.19-3.32-3.28Z"/>
        <path class="cls-3" d="M397,768c2.93-1.22,5.63-2.48,9-2.01-.45,3.38,1.66,5.13,0,8.01h-1c-.09-1.99.07-4.02,0-6.01h-8.01Z"/>
        <path class="cls-2" d="M405,775c0-.33.02-.67,0-1h1c-.22.39-.67.69-1,1Z"/>
        <path class="cls-3" d="M405,819h-1c.24-.39.66-.69,1-1-.03.33.02.67,0,1Z"/>
      </g>
      <g>
        <path class="cls-12" d="M523,768c-1.66-1.62-1.91-2.48-5.01-2.01v-1.99h36.51c.46,0,7.82,3.86,8.23,4.27,1.2,1.22,3.92,8.61,4.03,10.48.48,8.53-5.78,14.74-13.75,16.26l10.07,19.99c.46-.11.82-1.01.93-1.01.75.02,5.23,5.8,6,7,.03.05-1,.63-.59,1.02,1.71,1.6,6.06.37,5.59,3.98h-14.5c-4.48,0-5.06-7.41-6.5-5-2.02-3.35-1.81-4.17-3-7-.24-.57.02-1.9-.45-3.01-.75-1.76-6.27-12.49-6.97-12.7-.21-.06-.53.72-.58.71-1.92-.37-5.24-1.59-7-1-1.47.5-.91,1.34-1.04,2.45-.4,3.22-.5,14.56.04,17.55.81,4.51,4.99,4.23,7,7h-22.5c-.23,0-1.83-1.73-1.5-1.99,4.7,1.21,3.79-1.83,4-2.01.16-.13,1.42.23,2.05-.65.86-1.21.89-3.31,1-4.81.78-10.72,1.28-33.88.01-44.11-.35-2.82-.68-2.09-2.05-3.43ZM536,768c-1.78,1.78-1.06,15.86-1.02,19.51.02,1.69-.64,4.44,1.02,5.49,4.01.67,7.41-.44,11-1,.13-.02.7,1.2,2.65.31,4.09-1.86,7.12-9.98,6.33-14.32-.46.13-.83,1-.98,1.01-.47.05-.8-.02-.98-.51.29-2.62-1.09-4.36-2.02-6.49-.03-.07,1.01-.44.13-1.47-2.96-3.5-13.25-5.42-16.13-2.53Z"/>
        <path class="cls-3" d="M523,769c-4.6-3.08-8.36.19-7-7h37.5c1.27,0,7.12,3.35,8.52,4.48,11.27,9.1,6.34,26.17-7.02,29.54l9,17.98c-.11,0-.47.89-.93,1.01l-10.07-19.99c7.97-1.53,14.24-7.73,13.75-16.26-.11-1.87-2.83-9.26-4.03-10.48-.41-.41-7.77-4.27-8.23-4.27h-36.5v1.99c3.09-.48,3.34.38,5,2.01v1Z"/>
        <path class="cls-5" d="M523,768c1.37,1.34,1.7.62,2.05,3.43,1.27,10.23.77,33.39-.01,44.11-.11,1.49-.13,3.6-1,4.81-.63.88-1.89.52-2.05.65-.21.18.7,3.22-4,2.01-.33.26,1.27,1.99,1.5,1.99h22.5c-2.01-2.77-6.19-2.49-7-7,1.84-4.12,1-10.26,1-15,2.97,4.19-1.29,15.27,2.58,17.93,3,2.06,5.52-.95,4.42,6.07h-27c-1.84-7.69,3.91-4.35,6-6,2.33-1.84.3-45.52,1-52v-1Z"/>
        <path class="cls-2" d="M554,821c1.44-2.41,2.02,5,6.5,5h14.5c.47-3.62-3.88-2.39-5.59-3.98-.41-.39.62-.97.59-1.02,5.11,1.38,6.93-.47,6,6h-17.5c-1.2,0-3.75-4.76-4.5-6Z"/>
        <path class="cls-6" d="M536,803c0,4.74.84,10.88-1,15-.54-2.99-.45-14.33-.04-17.55.14-1.11-.43-1.95,1.04-2.45v5Z"/>
        <path class="cls-2" d="M551,814c-3.76-3.84-5.17-10.3-8-15,.05,0,.36-.77.58-.71.7.21,6.22,10.94,6.97,12.7.47,1.1.21,2.44.45,3.01Z"/>
        <path class="cls-13" d="M536,768c5.39,0,12.45-.87,16,4,.93,2.13,2.31,3.87,2.02,6.49.19.5.51.56.98.51.32,5.14-2.57,12.11-8,13-3.59.56-6.99,1.67-11,1v-25Z"/>
        <path class="cls-6" d="M536,793c-1.66-1.04-1-3.79-1.02-5.49-.05-3.65-.76-17.73,1.02-19.51v25Z"/>
        <path class="cls-2" d="M552,772c-3.55-4.87-10.61-3.99-16-4,2.89-2.89,13.18-.97,16.13,2.53.88,1.04-.16,1.4-.13,1.47Z"/>
        <path class="cls-2" d="M547,792c5.43-.89,8.32-7.86,8-13,.15-.02.52-.89.98-1.01.79,4.34-2.25,12.46-6.33,14.32-1.95.89-2.52-.33-2.65-.31Z"/>
      </g>
      <path class="cls-14" d="M732,768l5,2c.8,1.33.95,1.2,2,2,2.9,6.1,3.5,15.11-3,19-3.91,2.34-8.61,2.13-13,2v-25c2.69.36,6.14-.1,9,0Z"/>
      <path class="cls-16" d="M723,768v25c4.39.13,9.09.34,13-2v1c-2.52,1.41-12.12,5.2-14.11,2.42-2.5-3.5.04-22.06-.88-27.41,1.25-.44,1.88.98,1.99,1Z"/>
      <path class="cls-5" d="M739,772c.21.16,1.29-.48,2.08.61,4.68,6.43,1.6,15.65-5.08,19.39v-1c6.5-3.89,5.9-12.9,3-19Z"/>
      <path class="cls-5" d="M732,768c1.23.04,4.39-.33,4.94.09.39.3-.12,1.62.06,1.91l-5-2Z"/>
      <path class="cls-1" d="M676,783c1.63,10.95,2.35,26.75-6,35-6.32,6.25-16.68,5.06-23-1-.32-.34-.75-.69-1-1-6.8-11.79-9.63-45.77,7.74-48.75,13.53-2.32,17.47,4.96,22.26,15.75Z"/>
      <path class="cls-3" d="M646,816c-7.22-9.06-8.32-19.22-6.55-31.05,3.82-25.58,32.37-26.71,36.55-2.95.06.32-.05.67,0,1-4.79-10.79-8.73-18.08-22.26-15.75-17.37,2.98-14.54,36.97-7.74,48.75Z"/>
      <path class="cls-5" d="M670,819v-1c8.35-8.25,7.63-24.05,6-35-.05-.33.06-.68,0-1,5.11,11.61,3.41,28.16-6,37Z"/>
      <path class="cls-3" d="M647,817c6.32,6.06,16.68,7.25,23,1v1c-6.48,6.09-14.24,7.14-21.41.87-1.52-1.33-1.38-2.64-1.59-2.87Z"/>
      <path class="cls-10" d="M593,768c-1.61-1.58-1.81-2.5-5-2.01.37-5.4,6.16-1.91,9.51-1.93,2.61,0,14.53-1.89,15.49-1.06-.06,4.49-7.13,1.83-6.99,6.99,1.59,14.73-2.58,35.2,1,49,.14.55-.31,1.52.02,2.28.38.87,2,.61,2,1.22,0,.83-.91,2.5-1.53,2.5h-16c-2.34,0-4.27.38-3.51-1.99,3.01.36,3.35-.18,5.01-2.01s1.75-2.03,2.03-4.47c1.16-10.13.97-33.74.03-44.09-.09-.94.02-1.85-.26-2.78-.36-1.24-1.34-1.2-1.8-1.65Z"/>
      <path class="cls-10" d="M276,770c-.84-5.15-6.83-2.76-6.99-6.99,8.62,1.33,16.37,0,24.99,0,.4,2.33-2.34,3.03-3.99,3.99-1.14.66-2.48-.45-3.01,2.49l-.04,48.07,1,2.99,6.05,4.45h-23.5c-.17,0-1.57-1.35-1.5-1.99,5.15.5,6.54-2.54,7-7.01,1.5-14.45-1.11-31.28,0-46Z"/>
      <g>
        <path class="cls-12" d="M458,821c1.37-1.34,1.7-.61,2.05-3.43,1.79-14.29-1.42-32.32-.08-47.04-.19-1.29-.92-2.3-1.88-3.12-2.42-2.07-5.68-.22-5.09-3.41h44c-.39,2.03.54,11.31,0,11.99-2.03,2.53-2.81-4.4-3.21-4.82-.47-.49-1.67-.04-1.78-.17-.23-.27-.65-.63-1-1-.21-.23.02-1.45-.47-2.02-1.35-1.58-17.89-1.62-19.53.02-1.4,1.4-1.59,21.59-.56,23.06,1.19,1.72,11.38,1.34,13.56-.06.42-.27.56-1.75,2-2,.07-.01.58.98.97,1.01.8-1.67-.01-5.78,3.02-5.01l.02,17.4c-3.87,2.33-2.31-.86-4.02-3.41-.08-.12-1.89-1.92-2-2-.58-.42-.87-1.22-1.9-1.55-1.26-.4-2.31-.38-3.55-.5-1.46-.14-6.93-.7-7.54,1.04,3.87-.54,6.59.23,9.99,1.01-2.67.5-7.85-.71-10,0-1.48.49-.91,1.34-1.04,2.45-.74,5.98.62,13.4.06,19.57.51-.08.83-.99.98-1.01.76-.11,1.96,2.49,2,3,0,.07-1.19.27-1.01.98,6-.27,12.23.89,18-1.04-.15-.4-1.01-.85-1-.94.1-.67,4.9-4.03,6-5,1.51-1.34,2.82-4.18,4.99-3.99l-1,15c-13.33-3.26-30.54,1.14-43.45-1.04-1.18-.2-2.37-.59-2.54-1.95,3.2.49,3.39-.42,5-2.01Z"/>
        <path class="cls-5" d="M457,821l1-50.5c-2.05-5.83-8.94-.26-7-8.5h46.5c.11,0,1.5,1.39,1.5,1.5v14.5c-6.16,1.28-5.61-2.14-7-7,.11.13,1.31-.32,1.78.17.4.42,1.18,7.35,3.21,4.82.55-.68-.39-9.97,0-11.99h-44c-.59,3.19,2.67,1.34,5.09,3.41.96.82,1.69,1.83,1.88,3.12-1.34,14.72,1.87,32.75.08,47.04-.35,2.82-.69,2.09-2.05,3.43h-1Z"/>
        <path class="cls-3" d="M495,815c.73-4.79,1.66-6.84,7-6l-2.01,19.01c-.39.4-1.29-1.01-1.49-1.01h-47.5c-.94-5.89.91-5.32,6-6h1c-1.61,1.59-1.8,2.5-5,2.01.18,1.35,1.36,1.75,2.54,1.95,12.92,2.19,30.12-2.21,43.45,1.04l1-15c-2.17-.18-3.48,2.66-4.99,3.99Z"/>
        <path class="cls-2" d="M486,789c-.69-6.31.32-5.11,6-5l-1,21.01h-5.01s0-6.01,0-6.01c1.71,2.55.14,5.74,4.02,3.41l-.02-17.4c-3.04-.77-2.22,3.34-3.02,5.01-.39-.03-.9-1.03-.97-1.01Z"/>
        <path class="cls-5" d="M491,770c-6.53-2.7-13.07-2-20-2,1.64-1.64,18.18-1.6,19.53-.02.49.57.26,1.79.47,2.02Z"/>
        <path class="cls-6" d="M471,768v23.01s13,0,13,0c-2.18,1.41-12.37,1.78-13.56.06-1.03-1.48-.84-21.66.56-23.06Z"/>
        <path class="cls-6" d="M471,818c-.15.02-.47.93-.98,1.01.55-6.16-.8-13.59-.06-19.57.14-1.11-.43-1.96,1.04-2.45v21Z"/>
        <path class="cls-6" d="M489,820c-.01.09.85.54,1,.94-5.77,1.93-12.01.77-18,1.04-.19-.71,1.01-.91,1.01-.98l16-1Z"/>
        <path class="cls-2" d="M484,797c-.94-.13-2.15.19-3,0-3.4-.78-6.13-1.55-9.99-1.01.61-1.73,6.08-1.18,7.54-1.04,1.24.12,2.29.09,3.55.5,1.04.33,1.32,1.13,1.9,1.55Z"/>
      </g>
    </g>
    <g>
      <g>
        <path class="cls-4" d="M573,638c-4.16-3-8.21,0-7-6h65.01s1,20,1,20c-6.81,1.03-4.18-1.3-6.44-6.07-1.82-3.84-2.4-1.82-2.56-1.93-4.07-2.93-6.1-3.61-11-5,1.11-.06,3.26.69,2.99-.99-5.65.84-16.34-1.63-20.99.99-.31.17-.83.69-1,1-.88,1.56-.9,1.4-1.06,3.4-.58,6.9-.74,21.47.01,28.21.16,1.39.08,1.42,1.05,2.4,1.53,1.53,13.6,1.34,16.53,1.03,2.72-.29,2.62-.66,4.47-2.03,3.47-2.56,3.31-3.51,3-8.01.71.14,4-.19,4,0v27c-6.47.22-2.64-1.53-5.13-6.37-3.59-6.99-15.89-4-22.24-4.67-1.23.24-.43,1.54-.63,2.04-.29.72-.92,1.01-1.04,2.41-.62,6.96-.78,22.33.02,29.1.21,1.73.85,4.93,2.67,5.38.73.18,1.25-.89,1.35-.89,15.07-.37,18.78,2.99,31-7,.06-.05.54,1.15,1.43.09,3.1-3.7,1.2-9.69,8.57-8.08l-3,24-70-1.01c-.14-.92-.17-3.12,0-4h1c3.74.42,2.8-1.42,3.33-1.66.78-.34,1.6-.3,1.67-.34l.51.99c3.4.93,2.23-1.75,2.49-1.99.14-.13,1.39.34,1.98-.72.71-1.29.94-4.14,1.06-5.74,1.41-18.06,1.59-51.16.01-69.08-.29-3.31-.25-4.43-3.05-6.45Z"/>
        <path class="cls-15" d="M572,639c-1.27-1.01-6.41-1.41-6.87-2.13-.66-1.02.43-5.1-1.13-6.87h68l2,24c-1.67-.32-7.16.55-7.91-.1-.39-.34-2.07-8.37-3.1-9.9.16.12.74-1.9,2.56,1.93,2.26,4.77-.37,7.1,6.44,6.07l-1-20.01h-65.01c-1.2,6,2.84,3,7,6.01-.68-.16-1.27.58-1,1Z"/>
        <path class="cls-2" d="M626,729l-1.49-.99-.51.99c-19.78.33-39.61-.26-59.4.02-1.1.11-.49-1.3-.6-2.02l70,1.01,3-24c-7.38-1.62-5.47,4.38-8.57,8.08-.89,1.06-1.37-.13-1.43-.09,1.22-4.17,4.07-13.75,10.07-9.56,2.81,1.96-1.93,21.37-1.5,25.63-1.12,1.62-7.24.87-9.56.93Z"/>
        <path class="cls-5" d="M573,638c2.8,2.02,2.75,3.14,3.05,6.45,1.58,17.92,1.4,51.02-.01,69.08-.12,1.6-.35,4.45-1.06,5.74-.59,1.07-1.84.6-1.98.72-.26.24.91,2.92-2.49,1.99l-.51-.99c.93-.57,2.89-.89,3-1,.46-.48.97-4.36,1.05-5.45,1.3-17.57,2-55.21.01-72.12-.37-3.12-1.46-2.5-2.06-3.43-.27-.42.32-1.16,1-1Z"/>
        <path class="cls-16" d="M613,673c3.74-1.77,1.44-6.73,1.99-10h8.01v31c-1.47-.24-7.68.34-8.01,0-.36-.37.63-8.61-1.7-10.03-3.81-2.33-15.45-.26-20.3-.97.2-.51-.6-1.8.63-2.04,6.35.67,18.65-2.32,22.24,4.67,2.48,4.84-1.34,6.59,5.13,6.37v-27c0-.2-3.28.13-4,0,.31,4.49.47,5.45-3,8.01h-1Z"/>
        <path class="cls-6" d="M596,719c-.1,0-.62,1.08-1.35.89-1.82-.45-2.46-3.64-2.67-5.38-.8-6.78-.64-22.15-.02-29.1.12-1.4.76-1.7,1.04-2.41,1.97,10.4.34,21.06.94,31.55.11,1.87-.22,3.75,2.06,4.45Z"/>
        <path class="cls-6" d="M593,674c-.98-.98-.9-1-1.05-2.4-.75-6.73-.59-21.3-.01-28.21.17-2,.19-1.83,1.06-3.4v34Z"/>
        <path class="cls-2" d="M613,673h1c-1.85,1.36-1.75,1.73-4.47,2.03-2.93.31-15,.51-16.53-1.03,6.71.1,13.39.21,20-1Z"/>
        <path class="cls-6" d="M594,639c4.66-2.62,15.35-.15,20.99-.99.26,1.68-1.88.93-2.99.99-5.96.29-12.03-.21-18,0Z"/>
        <path class="cls-4" d="M626,729c-.67.02-1.33-.01-2,0l.51-.99,1.49.99Z"/>
      </g>
      <path class="cls-2" d="M565,723h-1c.08-.43-.1-.81.51-.98.27.01.38.97.49.98Z"/>
      <g>
        <path class="cls-7" d="M340,632c.67-.02,1.33.01,2,0,.41,1.56,3.68,1.5,4,0,.67.01,1.33-.02,2,0,.14,1.5,2.86,1.5,3,0,1.52.09,3.75-.3,5,0l2,2,27.6,64.9,3.33.04,26.3-65.69c3.38-2.68,6.95-.05,10.27-.15,5.33-.17,10.89-1.96,16.5-1.09,2.57,2.66-7.26,6.23-8.44,8.05-1.03,1.58-1.58,5.92-1.56,7.94.18,15.42,1.78,31.09,2.04,46.45.11,6.4-2.38,19.65.88,24.89,1.6,2.57,8.74,3.31,9.09,3.66.11.1.1,2.88,0,2.99-1.28,1.32-28.46-1.33-33,1l1.99-4.99,7.03-3.53-1.03-66.46c-.63-.13-1.51.16-2,0-.22-.07-.68-.02-1,0-.06,0-.32-.96-.97-.57-1.74,1.04-3.95,9.22-5.15,11.95-3.18,7.27-6.31,15.84-9.6,22.39-.93,1.85-3,2.14-3.12,2.36-.15.29.98,2.1.45,3.87-.38,1.28-2.03,2.77-2.66,4.45-3.66,9.63-7.22,19.46-11.63,28.62l-3.76.98c-2.61-5.85-3.58-12.31-5.78-18.33-3.56-9.77-9.78-20.49-12.95-29.08-3.39-9.2-6.06-18.82-10.01-27.96-.89-2.05-.33-1.51-1.82-.68-.33.18-.73.67-1,1-.21.26-1.2.34-1.49.99-1.64,3.66-.3,23.12-.51,29.01-.3,8.6-1.04,17.51-.96,26.54.04,3.87-1.75,7.55.89,11.79.73,1.17,2.4,1.07,3.07,1.67,3.2,2.9,7.25,5.44-.45,6.05-6.65.52-13.25-1.18-19.85-.19-4.37-2.26,1.38-3.74,4.3-5.87.29-.22,1.38-.02,1.97-.53,1.98-1.74,4.03-15.77,4.07-19.02s-1.24-5.91-1.11-8.93c.64-15.65,2.62-33.99,1.08-49.52,1.54-.07.96-1.83.99-3l-.99,1c-.17-.17-1.44.12-2,0-.08-.33.09-.72,0-1-.26-.78-.73-2.2-1.27-2.7-1.52-1.43-7.63-1.88-6.72-3.78,1.17-2.45,8.31-1.43,10.99-1.52Z"/>
        <path class="cls-3" d="M349,650c1.49-.83.93-1.37,1.82.68,3.96,9.14,6.62,18.76,10.01,27.96,3.17,8.59,9.39,19.31,12.95,29.08,2.19,6.02,3.17,12.48,5.78,18.33l3.76-.98c4.41-9.16,7.98-18.99,11.63-28.62.64-1.68,2.28-3.16,2.66-4.45.52-1.77-.61-3.59-.45-3.87.12-.22,2.19-.51,3.12-2.36,3.29-6.56,6.42-15.13,9.6-22.39,1.19-2.73,3.41-10.91,5.15-11.95.65-.39.92.58.97.57l-31.11,76.88-6.23.16-29.66-79.04Z"/>
        <path class="cls-3" d="M358,631l27.77,64.72,2.22,1.28,27.51-67h29.5c1.95,10.9-3.79,5.56-8.57,8.93-2.51,1.77-2.66,6.25-2.43,9.07h-2c-.02-2.02.53-6.36,1.56-7.94,1.19-1.82,11.02-5.39,8.44-8.05-5.61-.87-11.17.92-16.5,1.09-3.32.11-6.89-2.53-10.27.15l-26.3,65.69-3.33-.04-27.6-64.9c-.36-.91-1.01-1.76-2-2-1.25-.3-3.48.09-5,0-.99-.06-2,.03-3,0-.67-.02-1.33.01-2,0-1.33-.03-2.67-.03-4,0-.67.01-1.33-.02-2,0,5.36-2.28,12.27-.41,18-1Z"/>
        <path class="cls-16" d="M434,648l2.06,67.44c1.24,7.59,8.71,5.32,9.84,6.65.63.74-.21,5.36.1,6.9h-39c-.79-9.41.18-5.98,6-8v1l-1.99,4.99c4.54-2.34,31.72.32,33-1,.1-.11.11-2.88,0-2.99-.36-.35-7.49-1.09-9.09-3.66-3.26-5.24-.77-18.48-.88-24.89-.26-15.37-1.86-31.04-2.04-46.45h2Z"/>
        <path class="cls-5" d="M417,652c.49.17,1.37-.13,2,0l1.03,66.46-7.03,3.53v-1c8.59-2.98,4.08-17.6,3.96-24.46-.26-14.83.27-29.72.04-44.54Z"/>
        <path class="cls-5" d="M339,641c.14.14-.06,1.41,0,2,1.54,15.53-.44,33.87-1.08,49.52-.12,3.02,1.15,5.76,1.11,8.93s-2.09,17.28-4.07,19.02c-.59.52-1.67.32-1.97.53v-1c5.49-16.44,3.67-36.94,3.96-54.54.14-8.67,2.19-15.15.04-24.46.56.12,1.83-.17,2,0Z"/>
        <path class="cls-16" d="M333,721c-2.92,2.13-8.67,3.6-4.3,5.87,6.6-1,13.2.71,19.85.19,7.7-.61,3.65-3.15.45-6.05,4.68,1.92,9.68-3.19,8,8h-32c.27-1.44-.44-6.47.04-6.96.29-.29,6.61-.51,7.96-2.04v1Z"/>
        <path class="cls-16" d="M358,631c-5.73.59-12.64-1.28-18,1-2.68.08-9.82-.94-10.99,1.52-.9,1.9,5.2,2.35,6.72,3.78.53.5,1.01,1.92,1.27,2.7-6.55-3.76-11.84.23-10-10.01,10.14.63,21.14-1.29,31,1.01Z"/>
        <path class="cls-2" d="M347,681c-.17,6.12-1.09,13.31-1.05,19.46.03,3.75-.63,19.03,3.05,20.54-.67-.6-2.34-.5-3.07-1.67-2.63-4.24-.85-7.92-.89-11.79-.08-9.03.66-17.94.96-26.54h1Z"/>
        <path class="cls-6" d="M347,681h-1c.2-5.88-1.13-25.35.51-29.01.29-.65,1.28-.74,1.49-.99-1.77,9.88-.72,20-1,30Z"/>
        <path class="cls-16" d="M346,632c-.32,1.5-3.59,1.56-4,0,1.33-.03,2.67-.03,4,0Z"/>
        <path class="cls-16" d="M351,632c-.14,1.5-2.86,1.5-3,0,1,.03,2.01-.06,3,0Z"/>
        <path class="cls-16" d="M339,643c-.06-.59.14-1.86,0-2l.99-1c-.03,1.17.55,2.93-.99,3Z"/>
        <path class="cls-16" d="M358,634l-2-2c.99.24,1.64,1.09,2,2Z"/>
      </g>
      <path class="cls-13" d="M521,646c15.98,13.46,15.84,55.73-1,68-6.69,4.87-14.39,6.76-22.66,6.62-5.3-.09-6.83-.48-8.34-5.62.64-24.95-.47-50.04,0-75,.28-.35.49-.89,1-1,8.65-1.8,24.08,1.17,31,7Z"/>
      <g>
        <path class="cls-7" d="M469,720c.19-.15,1.3.5,2-.7.65-1.12.92-4.28,1.04-5.77,1.79-23.14-.98-49.22-.56-72.51-1.96-4.72-10.26-3.44-9.47-9.02,12.8.4,25.74-.55,38.54-.05,8.94.35,22.1,1.65,29.71,5.09,1.46.66,4.52,4.24,7.75,3.95.97.8,5.24,5.05,6,6l4.52,11.03c6.76,19.79,3.21,41.76-11.52,57.97-.32.35-.67.67-1,1-4.26,1.24-7.51,4.08-11.74,5.76-12.24,4.86-20.56,3.98-33.26,4.24-.66-1.58-4.34-1.58-5,0-2.66,0-5.34.02-8,0-.95-1.61-4.99-1.64-6,0-1.63-.03-9.66.36-10,0-.13-.14-.11-3.7.1-3.91.14-.14,2.4-.38,3.9-1.09,1.97-.93,1.55-.83,3-2ZM490,639c-.51.11-.72.65-1,1-.96,1.19-1.31,1.78-1.06,3.4l.06,74.09c1.49,1.69.99-1.87,1-2.5,1.51,5.14,3.03,5.53,8.34,5.62,8.27.14,15.98-1.75,22.66-6.62,1.46,1,4.91-3.09,5.54-3.96,12.38-17.09,12.87-51.22-4.54-65.04-9.31-7.39-19.19-8.75-31-6Z"/>
        <path class="cls-3" d="M538,641c-3.23.28-6.29-3.29-7.75-3.95-7.61-3.44-20.77-4.74-29.71-5.09-12.8-.5-25.74.45-38.54.05-.79,5.58,7.51,4.3,9.47,9.02-.42,23.29,2.35,49.37.56,72.51-.11,1.49-.39,4.65-1.04,5.77-.7,1.2-1.81.55-2,.7.43-.39.97-4.4,1.05-5.45,1.37-18.59,1.69-52.74-.05-71.06-.74-7.82-8.07-4.48-9.9-6.59-.63-.73.2-5.35-.1-6.9h50.5c8.17,0,21.17,5.74,27.5,11Z"/>
        <path class="cls-5" d="M544,647c11.52,14.34,11.8,39.48,4.18,55.67-2.01,4.28-7.09,11.11-11.18,13.33,14.73-16.21,18.27-38.18,11.52-57.97l-4.52-11.03Z"/>
        <path class="cls-5" d="M536,717c-5.63,5.65-14.99,9.3-23,10-.84.07-1.75.01-2,1-1.64.13-3.37-.19-5,0l-3,1c-1.98.13-4.01-.07-6,0l-.5-.98-.5.98c-3.32.09-6.68-.03-10,0l-.5-.98-.5.98c-2,.01-4,.01-6,0-.41-1.56-3.68-1.5-4,0-2-.02-4,.04-6,0-1.26-1.65-5.74-1.65-7,0-.36-.05-.78.1-1,0v-7c.49-.19,2.17,0,3,0h2c-1.5.71-3.76.94-3.9,1.09-.21.21-.24,3.77-.1,3.91.34.36,8.37-.03,10,0,2,.04,4-.02,6,0,2.66.02,5.34,0,8,0,1.67,0,3.34.03,5,0,12.7-.26,21.02.62,33.26-4.24,4.23-1.68,7.48-4.52,11.74-5.76Z"/>
        <path class="cls-15" d="M469,729c-2.22-.05-4.93.29-7,0,1.26-1.65,5.74-1.65,7,0Z"/>
        <path class="cls-15" d="M461,729c-1.63-.77-1.66-6.36,0-7v7Z"/>
        <path class="cls-15" d="M469,720c-1.45,1.17-1.03,1.07-3,2h-2c.83-1.65,4.47-1.52,5-2Z"/>
        <path class="cls-15" d="M479,729c-1.33,0-2.67.01-4,0,.32-1.5,3.59-1.56,4,0Z"/>
        <path class="cls-15" d="M506,728c-.16.02-.89.87-3,1l3-1Z"/>
        <path class="cls-15" d="M513,727c-.27.98-1.15.93-2,1,.25-.99,1.16-.93,2-1Z"/>
        <path class="cls-15" d="M486,729c-.33,0-.67,0-1,0l.5-.98.5.98Z"/>
        <path class="cls-15" d="M497,729c-.33.01-.67,0-1,0l.5-.98.5.98Z"/>
        <path class="cls-5" d="M521,645c17.41,13.82,16.92,47.96,4.54,65.04-.63.87-4.08,4.96-5.54,3.96,16.84-12.27,16.98-54.54,1-68v-1Z"/>
        <path class="cls-6" d="M489,715c-.02.62.48,4.18-1,2.5l-.06-74.09c-.24-1.62.1-2.21,1.06-3.4-.47,24.96.64,50.05,0,75Z"/>
        <path class="cls-2" d="M490,639c11.81-2.75,21.69-1.39,31,6v1c-6.92-5.83-22.35-8.8-31-7Z"/>
        <path class="cls-15" d="M478,727c-2-.02-4,.04-6,0,1.01-1.64,5.05-1.61,6,0Z"/>
        <path class="cls-15" d="M491,727c-1.66.03-3.33,0-5,0,.66-1.58,4.34-1.58,5,0Z"/>
      </g>
      <g>
        <path class="cls-10" d="M285,631c2.81.71,6.91,3.64,10.2,4.08l9.8,6.92c.32.34.69.64,1,1,2.16,5.05,5.34,8.94,7.22,14.37,3.76,10.87,3.88,21.16,2.74,32.05l-7.96,21.58c-10.7,14.57-24.96,20.1-43,19,.56-3.23-1.63-1.68-3.49-1.97-7.65-1.19-14.28-3.33-20.51-8.03-17.64-13.3-21.14-43.32-12.18-62.68l7.18-13.32c3.32-3.67,4.73-5.21,9-8l19.61-5.89c6.57-.01,14.01-.71,20.39.89ZM255,641c-6.46,5.2-7.12,8.87-10.07,16.24-.8,2.01-.85-.96-1.32,4.05-1.28,13.44-1.78,25.47,1.88,38.71,1.09,3.96,3.22,12.01,7.51,12.99,2.11,3.17,2.37,2.49,5,4-.51,2.36,1.17,2.11,2.63,2.82,8.42,4.04,18.49,3.9,25.37-2.82,1.09-1.07,1.05-1.92,3-3,.05-.03.55,1.09.82.89.49-.36,5.15-8.64,5.67-9.9,6.61-16.11,5.09-44.14-5.49-57.99-8.73-11.42-22.61-15.97-35-6Z"/>
        <path class="cls-5" d="M236,644l-7.18,13.32c-8.97,19.36-5.46,49.37,12.18,62.68v1c-23.56-18.03-24.82-55.14-5-77Z"/>
        <path class="cls-5" d="M308,711l7.96-21.58c1.14-10.89,1.02-21.18-2.74-32.05-1.88-5.43-5.06-9.31-7.22-14.37,15.88,18.93,16.7,47.97,2,68Z"/>
        <path class="cls-2" d="M285,630v1c-6.38-1.61-13.82-.91-20.39-.89l-19.61,5.89c12.38-8.08,25.77-9.65,40-6Z"/>
        <path class="cls-2" d="M241,720c6.24,4.7,12.87,6.84,20.51,8.03,1.86.29,4.05-1.26,3.49,1.97-10.64-.65-15.75-2.69-24-9v-1Z"/>
        <path class="cls-5" d="M305,642l-9.8-6.92c-3.29-.45-7.4-3.38-10.2-4.08v-1c9.7,2.49,13.27,4.91,20,12Z"/>
        <path class="cls-11" d="M290,648c9.17,20.42,11.52,46.43-1,66-1.95,1.08-1.91,1.93-3,3-9.03,5.94-18.9,5.23-28,0-2.63-1.51-2.89-.83-5-4-11.64-17.48-13.56-55.09,2-71,11.66-7.46,26.58-5.11,35,6Z"/>
        <path class="cls-3" d="M290,647c10.58,13.85,12.1,41.89,5.49,57.99-.52,1.26-5.18,9.54-5.67,9.9-.27.2-.77-.92-.82-.89,12.52-19.57,10.17-45.58,1-66v-1Z"/>
        <path class="cls-5" d="M255,642c-15.56,15.91-13.64,53.52-2,71-4.29-.99-6.41-9.03-7.51-12.99-3.66-13.24-3.16-25.27-1.88-38.71.48-5.01.52-2.05,1.32-4.05,2.95-7.38,3.61-11.05,10.07-16.24v1Z"/>
        <path class="cls-16" d="M255,641c12.39-9.97,26.27-5.42,35,6v1c-8.42-11.11-23.34-13.46-35-6v-1Z"/>
        <path class="cls-5" d="M286,717c-6.88,6.71-16.94,6.86-25.37,2.82-1.46-.7-3.15-.45-2.63-2.82,9.1,5.23,18.97,5.94,28,0Z"/>
      </g>
      <g>
        <path class="cls-12" d="M654,638c-.07-.04.21-1.29-.35-1.67-1.48-1.02-4.02-.36-3.65-4.32h65c-1.2,2.91,1.54,19.14.89,19.9-.21.24-3.95.83-4.89,1.1-.08-1.96-.21-4.68-1.18-6.37s-2.64-1.43-2.82-1.63c-.13-.15.15-1.21-.31-1.7-.84-.88-2.22-.88-2.69-1.3-.17-.15.07-1.72-.99-2.47-4.55-3.19-19.48-.69-25.38-1.57-1.23.24-.43,1.54-.63,2.04-.29.72-.92,1.01-1.04,2.41-.57,6.45-.88,23.57.04,29.59.42,2.77.69,2.73,3.45,3.05,4.4.51,14.94.31,18.55-2.05,1.9-1.24,4.93-12.46,6.84-6.34s-1.32,17.65.15,24.34c-5.44,1.08-3.62-2.02-5.61-5.9-1.13-2.21-2.17-3.74-4.38-4.11-.32-.05-.67.03-1,0-3.16-.25-13.51-.6-16,0-.56.14-1.24.44-1.51.95-.91,1.71-.91,33.9.03,36.03,1.9,4.31,15.46,3.47,19.97,3.01,8.71-.88,16.9-7.17,18.51-15.99,1.77-.53,4.09-1.85,4.85.67,1.48,4.88-2.82,16.67-1.86,22.33-22.54-2.68-45.25-.2-67.99-1-1.94-1.57,6.82-4.63,7.98-6.76,1.42-2.61.01-2.83.02-3.23.22-10.82-.13-21.68-.02-32.51.02-1.69-.64-4.45,1.02-5.49,0,11.46-.34,23.05,0,34.52.03.86-.41,3.6,1.01,1.98v-73c.01-1.19-.87.49-1,.5-1.68.06-.59-2.71-1.47-4.06s-3.05-.64-3.53-.94Z"/>
        <path class="cls-15" d="M714,705c.24-.69-.33-2.68.01-2.97.54-.47,6.42.27,7.99-.03l-3,27h-70c-2.7-11.08,6.2-5.03,9-12,0,.4,1.4.62-.02,3.23-1.16,2.13-9.92,5.19-7.98,6.76,22.74.8,45.45-1.67,67.99,1-.96-5.66,3.34-17.45,1.86-22.33-.76-2.52-3.08-1.2-4.85-.67h-1ZM650.5,723v1c.65-.33.65-.67,0-1Z"/>
        <path class="cls-15" d="M654,638c-6.48-.66-5.1-2.08-5-8h67l2,25c-1.67-.33-7.16.54-7.91-.11-.39-.34-1.77-8.47-3.1-9.9.18.2,1.82-.11,2.82,1.63s1.1,4.41,1.18,6.37c.94-.27,4.68-.86,4.89-1.1.65-.75-2.1-16.99-.89-19.91h-65c-.37,3.97,2.16,3.31,3.65,4.33.56.38.28,1.63.35,1.67Z"/>
        <path class="cls-16" d="M698,672c1.33-1.69.68-8.68.99-9.01s6.53.25,8.01,0v31c-11.84.79-6.23-.31-8.43-7.07-.61-1.89-2.3-2.68-3.57-3.93v-2c2.21.37,3.25,1.89,4.38,4.11,1.99,3.87.17,6.97,5.61,5.9-1.47-6.7,1.67-18.49-.15-24.34s-4.94,5.1-6.84,6.34v-1Z"/>
        <path class="cls-5" d="M692,682c-3.82,2.24-9.58.45-14,1v36h21.5c.46,0,7.69-2.96,8.44-3.56,2.21-1.74,5.09-7.68,6.06-10.44h1c-1.61,8.81-9.8,15.11-18.51,15.99-4.5.46-18.06,1.3-19.97-3.01-.94-2.13-.95-34.32-.03-36.03.27-.51.95-.81,1.51-.95,3.76,1.84,9.59,1,14,1Z"/>
        <path class="cls-6" d="M659,643c.14,0,1.02-1.69,1-.5v73c-1.42,1.62-.98-1.12-1-1.98-.34-11.46,0-23.05,0-34.52v-36Z"/>
        <path class="cls-2" d="M698,672v1c-3.61,2.36-14.15,2.56-18.55,2.05-2.76-.32-3.03-.28-3.45-3.05h1c6.21,1.91,14.6,1.35,21,0Z"/>
        <path class="cls-2" d="M704,642c-3.36-3.44-26.07-4.07-27-2,.2-.51-.6-1.8.63-2.04,5.9.88,20.83-1.62,25.38,1.57,1.06.75.82,2.32.99,2.47Z"/>
        <path class="cls-6" d="M677,672h-1c-.92-6.02-.62-23.14-.04-29.59.12-1.4.76-1.7,1.04-2.41v32Z"/>
        <path class="cls-2" d="M694,681v1h-2c-4.41,0-10.24.84-14-1,2.49-.6,12.84-.25,16,0Z"/>
        <path class="cls-5" d="M695,683c-.33-.33-.77-.56-1-1v-1c.33.03.68-.05,1,0v2Z"/>
        <path class="cls-12" d="M650.5,723c.65.33.65.67,0,1v-1Z"/>
      </g>
      <path class="cls-13" d="M760,664c-.06-8.32.04-16.68,0-25.01,20.46-3,30.47,10.8,24.52,30.02-2.45,7.92-5.89,10.04-13.52,11.98-.44.11-.82.58-1,1-.87.15-2.03-.04-3,0l-.5-.98-.5.98c-.66,0-1.35.07-2,0-.48-1.63-3.83-.32-4.06-1.57-.71-3.92.09-11.87.06-16.43Z"/>
      <g>
        <path class="cls-7" d="M739,639c-.14-.13.33-1.31-.17-1.79-.7-.67-5.38-.8-5.83-2.72-1.04-4.47,9.79-1.6,11.39-1.58,12.67.14,32.04-2.17,43.92,1.12,1.3.36-.89.57,2.69.97,2.27,1.63,4.53,4.09,7,5,.31.35.72.62,1,1,.2,3.42,2.57,5.55,3.54,8.96,2.37,8.29.93,21.13-4.54,28.04-4.54,5.74-14.37,9.34-21.52,9.98-5.54.5-11.33-1.06-16.48,1.02-1.89.76-3.24.17-3.07,3.46,2.18,7.45-1.71,24.64,5.1,29.01,2.09,1.34,14.49,3.79,3.51,4.58-8.53.62-14.82.12-23.05-.15-2.65-.08-7.38,2.31-8.49-.41-1.42-3.46,5.04-2.52,7.06-5.92s.63-11.68.89-16.11c.14-2.37,1-4.56,1.08-6.92.25-6.77.97-53.25-.51-55.61-.62-.99-2.29-.71-2.53-.93-.36-.34-.66-.67-1-1ZM759,681c.67,1.77.03,2.82,3.45,2.83,11.02.04,19.61-3.52,23.57-14.31,7.02-19.12-7.22-37.88-27.88-30.38.59,12.38-1.25,26.27-.21,38.47.17,1.97.58,2.09,1.07,3.38Z"/>
        <path class="cls-16" d="M740,640c.24.22,1.91-.06,2.53.93,1.48,2.36.76,48.84.51,55.61-.09,2.36-.94,4.55-1.08,6.92-.26,4.42,1.11,12.72-.89,16.11s-8.47,2.46-7.06,5.92c1.11,2.73,5.85.33,8.49.41,8.23.26,14.51.77,23.05.15,10.97-.8-1.42-3.24-3.51-4.58-6.81-4.37-2.92-21.56-5.1-29.01-.17-3.28,1.17-2.69,3.07-3.46v1c1.07,6.27-2.51,26.55,2.61,29.89s10.18-1.4,8.39,9.11h-40c-2.98-10.5,6.4-6.47,8.82-9.18.25-.28,1.07-5.29,1.17-6.33,1.71-19.01.97-48.57.05-68.03-.09-1.89-.48-3.67-1.04-5.45Z"/>
        <path class="cls-16" d="M791,635c-3.58-.4-1.39-.61-2.69-.97-11.88-3.29-31.25-.98-43.92-1.12-1.59-.02-12.43-2.89-11.39,1.58.45,1.93,5.12,2.05,5.83,2.72.5.48.04,1.66.17,1.79-7.01-1.58-9.18-.74-8-9h49.5c4.09,0,7.55,2.89,10.5,5Z"/>
        <path class="cls-5" d="M798,679v-1c5.47-6.91,6.91-19.75,4.54-28.04-.98-3.41-3.34-5.54-3.54-8.96,8.63,11.69,8.82,26.75-1,38Z"/>
        <path class="cls-2" d="M798,679c-6.32,7.24-14.44,10.1-24,11-.14-1.5-2.86-1.5-3,0-3.64.18-7.35-.13-11,0v-1c5.15-2.08,10.94-.52,16.48-1.02,7.15-.65,16.97-4.24,21.52-9.98v1Z"/>
        <path class="cls-5" d="M791,635c2.68.3,4.72,1.44,6.71,3.31.49.46.15,1.54.29,1.69-2.47-.91-4.73-3.37-7-5Z"/>
        <path class="cls-7" d="M774,690c-.98.09-2.01-.05-3,0,.14-1.5,2.86-1.5,3,0Z"/>
        <path class="cls-5" d="M759,681c-.49-1.29-.9-1.42-1.07-3.38-1.04-12.21.8-26.09.21-38.47,20.66-7.5,34.9,11.26,27.88,30.38-3.96,10.78-12.55,14.34-23.57,14.31-3.43-.01-2.78-1.06-3.45-2.83,1.61,1.2,3.27.82,5,1,.65.07,1.34,0,2,0,.33,0,.67.01,1,0,.97-.04,2.13.15,3,0,.47-.08.88-.52,1-1,7.62-1.95,11.07-4.06,13.52-11.98,5.94-19.22-4.06-33.02-24.52-30.02.05,8.32-.05,16.68,0,25.01-2.27,4.86-.42,11.58-1,17Z"/>
        <path class="cls-4" d="M760,664c.03,4.57-.78,12.51-.06,16.43.23,1.25,3.58-.06,4.06,1.57-1.73-.18-3.39.2-5-1,.58-5.42-1.27-12.14,1-17Z"/>
        <path class="cls-4" d="M767,682c-.33.01-.67,0-1,0l.5-.98.5.98Z"/>
        <path class="cls-4" d="M770,682c.18-.42.56-.89,1-1-.12.48-.53.92-1,1Z"/>
      </g>
    </g>
  </g>
  <g>
    <path class="cls-15" d="M337,307c-.03.33.02.67,0,1h-1c.17-1.26-.6-3.29,1-4-.09.99.08,2.01,0,3Z"/>
    <path class="cls-15" d="M338,301c0,.33.01.67,0,1h-1c.21-2.09.85-3.06,1-4,0,1,0,2,0,3Z"/>
    <g>
      <path class="cls-10" d="M407,192c65.85-42.89,147.52-44.38,212.28,3.24l5.72,2.76c2.45,2.01,4.64,3.87,7,6l-.98.49c1.4,1.52,2.72,3.34,4.98,3.51,1.75,1.69,3.31,3.25,5,5v1c14.34,16.7,27.27,35.15,35.32,56.18,5.08,13.25,7.02,24.01,8.62,38.2.08.69,1.97.54,2.1,1.26.82,4.56-.11,14.87-.09,19.82.14,48.39,6.73,109.85-11.96,154.54-3.1,7.42-7.98,15.39-12.22,22.28-.55.9-2.94,3.12-.78,3.72-5.18,8.07-9.67,13.86-16,21l-.49-.98c-1.05.76-1.6,1.65-1.51,2.98-.32.35-.68.66-1,1l-3.65,2.34-7.35,8.66c-.34.32-.65.68-1,1-2.13-.24-2.24-.13-2,2-4.96,4.39-9.6,8.17-15,12-.09-1.66-3.32.44-3.72.73-4.77,3.43-10.4,6.97-14.28,10.27-12.73,5.88-28.38,11.77-42,15-24.54,5.83-47.39,6.49-72.22,2.72-20.23-3.07-51.09-14.99-68.22-27.78-.86-.64-2.75-3.3-3.56-.94-5.98-4.27-10.59-8.04-16-13,2.02-.44-1.08-2.62-1.53-2.97-2.87-2.28-5.79-4.54-8.47-7.03-1.53-1.42-2.59-2.57-4-4l-18.42-26.08c-17.23-28.22-24.73-57.03-25.64-90.37-.94-34.46-1.24-73.32,1.05-107.54.02-.33-.02-.67,0-1s-.03-.67,0-1c1.62-.85.94-3.4,1-5,.01-.33,0-.67,0-1,1.64-2.43,1.77-6.14,2-9,.03-.33,0-.67,0-1l19-47c12.01-19.7,28.53-39.32,48-52ZM412,208c-3.3,2.44-8.82,7.22-12,10-1.32,1.16-1.95,1.98-3,3-.33.32-.7.66-1,1-1.88.86-2.84,2.41-4,4-2.65,3.64-5.37,6.52-8,10-.14-1.97-2.87,1.65-2.97,1.78-3.34,4.56-8.06,11.14-10.85,15.9-1.61,2.73-8.23,15.16-8.78,17.38-.39,1.58.46,1.52.6,1.94.19.55-.59,1.78.64,2.04l101.88-.11,2.49,2.07,1,254h43c-.59.18-1.04.94-2.42,1.04-11.92.88-24.98-.54-37.09-.04-1.22.05-3.72-.75-3.48.99l44.4.03.6-2.02v-107.01c-4.23.25-8.86.38-11-3.99,1.83-1.46-.07-3.96.18-6.28.4-3.73,5.23-4.05,8.32-4.73l161.11.06c1.31.17,1.63-.28,2.4-1.06,1.18-1.19,1.58-4.03,1.62-5.67,1.1-41.25,3.07-96.1-13.74-133.71l-6.88-10.62c-4.98-9.17-12.5-18.78-19-27l.98-.49c-1-1.55-2.76-2.39-3.98-3.51-.35-.32-.66-.67-1-1-1.26-4.42-6.24-7.02-8.99-10.51l-6.01-3.49c-5.45-4.45-11.09-8.69-17.08-12.42-2.61-1.62-12.75-8.32-14.92-7.58-1.63.56-.93,2.2-1.03,3.47-.77,9.86-1.13,30.59-.03,40.12.14,1.21-.23,1.68,1.05,2.41s2.66.57,4.5,1.99c9.18,7.06,4.84,17.74,7.75,20.76,1.92,1.99,9.15,3.24,12.65,5.84,2.38,1.76,8.33,8.8,10.09,11.41,3.41,5.04,8.28,16.84,8.96,22.57.23,1.95.13,3.74-.96,5.43h-23c-2.31.71-4.53,15.07-11,19s-17.72,5.02-25,2c-.58-.24-8.68-8.18-8.99-8.72-1.37-2.42-3.52-12.83-4.09-13.21-1.59-1.07-18.89,1.39-22.47.98-6.5-.75-.33-9.68-.51-14.6l8.06-16.44c2.19-2.51,3.38-3.84,6-6l14.94-7.57c.63-.26.74-1.12,1.06-1.43.3-.3.89-.76,1-1,1.83-3.96.8-8.06,2.82-12.68,1.91-4.37,3.69-4.45,6.18-7.32.3-.35.83-.7,1-1,.91-1.58.89-1.42,1.06-3.4.94-10.84,1.22-35.65,0-46.19-.16-1.42.07-1.42-1.06-2.4-.5-.44-3.97-1.64-5-2,.58-2.71-1.38-1.91-2.97-2.48-52.28-18.66-106.19-8.03-151.17,22.85-1.45.99-2.97,1.45-2.86,3.64ZM451,288l1.5-2h-93.99c-1.62,1.41,1.11.99,1.98,1.01,2.96.07,7.11-.89,9.52,1-4.29.04-8.62-.14-12.9.1-1.48,4.55-2.15,9.22-3.1,13.9-2.79-1.8-1.68-.96-2.14,1.34-1.34,6.67-2.54,15.34-2.9,22.12-1.64,30.8-2.25,76.09.04,106.54,2.39,31.77,18.6,65.77,40,88,.32.34.67.67,1,1,1.88,4.81,7.23,8.6,11,12h51l2-4,.05-238.56c-.13-1.2.39-1.83-1.05-2.44-.38-.16-1.37.06-2,0ZM566,308c-.07,3.69.78,4.34,3,7-2.85,1.42,4.34,5.69,4.71,5.79.85.24,8.88,1,9.63.9,4.43-.59,14.3-11.15,10.67-14.69-2.64-2.56-22.42-.13-27.4-1.02-1.04-.1-.58,1.3-.6,2.02ZM672,423c-45.8.73-91.7-.59-137.51-.02-1.69.02-4.45-.64-5.49,1.02-.32.06-.69-.08-1,0-.63.17-.95.24-1,1l1,52,1,1,132.34.84c6.1-9.05,8.43-21.05,10.66-31.84.13-.63.89-1.39,1-2,.22-1.2-.19-2.76,0-4,.6-3.9,4.14-15.7,1.01-18.55-1.16-1.06-1.86.55-2.01.55ZM514,424v107h1v-107h-1ZM528,531l95.98-.51c1.43-1.75,3.49-3.04,5.02-4.49l2.98-1.52,4.02-6.48c3.62-4.23,16.4-20.45,17-25,.09-.67.37-2.14-.6-2.02l-123.74-.02c-1.4.33-1.63,4.27-1.71,5.5-.62,9.03-.09,19.84.03,29.06.02,1.69-.64,4.45,1.02,5.49ZM528,532v1h96v-1h-96ZM421,547c-.72.14-1.05.05-1,1,.06,1.24,2.28,2.61,3.25,3.26,34.1,22.86,74.4,30.6,115.96,24.45,8.44-1.25,18.98-3.25,26-6,11.39-4.47,23.89-10.39,32.8-17.71,1.13-.93,7.28-4.6,5-5h-182Z"/>
      <path class="cls-15" d="M642,214c29.18,30.67,45.82,68.27,48.04,111.46,1.55,30.2,1.6,69.86-.05,100.03-1.16,21.23-6.43,41.24-14.99,60.51v-2c18.68-44.69,12.1-106.16,11.96-154.54-.01-4.95.92-15.26.09-19.82-.13-.72-2.03-.57-2.1-1.26-1.6-14.19-3.55-24.95-8.62-38.2-8.05-21.02-20.99-39.48-35.32-56.18h1Z"/>
      <path class="cls-15" d="M337,309c-2.29,34.23-1.99,73.08-1.05,107.54.91,33.34,8.41,62.15,25.64,90.37l18.42,26.08c-27.44-27.86-44.11-69.43-46.05-109.45-1.63-33.7-2.15-81.58,2.05-114.55h1Z"/>
      <path class="cls-5" d="M407,192c41.39-31.25,95.52-41.11,146.01-29.51,26.74,6.14,51.03,18.33,71.99,35.51l-5.72-2.76c-64.76-47.62-146.43-46.13-212.28-3.24Z"/>
      <path class="cls-3" d="M410,560c.81-2.35,2.7.3,3.56.94,17.13,12.79,47.99,24.71,68.22,27.78,24.83,3.77,47.68,3.1,72.22-2.72v1c-51.69,12.57-100.38,4.12-144-27Z"/>
      <path class="cls-5" d="M596,571c-10.31,8.78-29.47,12.95-42,16v-1c13.62-3.23,29.27-9.12,42-15Z"/>
      <path class="cls-2" d="M340,291c0-.67,0-1.33,0-2,4.4-16.99,9.92-30.1,19-45l-19,47Z"/>
      <path class="cls-5" d="M675,486c-3.97,8.93-7.74,15.81-13,24-2.16-.6.23-2.82.78-3.72,4.24-6.89,9.12-14.86,12.22-22.28v2Z"/>
      <path class="cls-2" d="M614,560c-5.85,4.15-11.42,7.96-18,11,3.88-3.31,9.51-6.85,14.28-10.27.41-.29,3.63-2.38,3.72-.73Z"/>
      <path class="cls-2" d="M338,301c0-1,0-2,0-3,.29-1.81.63-4.37,1-6h1c-.23,2.86-.36,6.57-2,9Z"/>
      <path class="cls-2" d="M337,307c.08-.99-.09-2.01,0-3,.06-.66-.07-1.34,0-2h1c-.06,1.6.62,4.15-1,5Z"/>
      <path class="cls-2" d="M632,545l7.35-8.66,3.65-2.34c-3.62,3.92-7.08,7.37-11,11Z"/>
      <path class="cls-2" d="M631,546c-.63.58-1.19,1.28-2,2-.24-2.13-.13-2.24,2-2Z"/>
      <path class="cls-2" d="M632,204c1.41,1.27,2.63,2.68,4,4-2.27-.17-3.59-1.98-4.98-3.51l.98-.49Z"/>
      <path class="cls-15" d="M340,291c0,.33.03.67,0,1h-1c.32-1.38.8-2.22,1-3,0,.67,0,1.33,0,2Z"/>
      <path class="cls-2" d="M394,547c-3.44-3.16-7.2-6.21-10-10,2.68,2.49,5.6,4.75,8.47,7.03.45.35,3.55,2.53,1.53,2.97Z"/>
      <path class="cls-2" d="M646,531c-.62.7-1.37,1.3-2,2-.1-1.33.46-2.22,1.51-2.98l.49.98Z"/>
      <path class="cls-2" d="M337,309h-1c.04-.33-.04-.67,0-1h1c-.02.33.02.67,0,1Z"/>
      <path class="cls-2" d="M642,214h-1v-1c.33.34.67.66,1,1Z"/>
      <path class="cls-1" d="M569,184c1.03.36,4.5,1.56,5,2v52c-.17.3-.7.65-1,1-8.55,3.27-9.87,11.83-9,20-.11.24-.7.7-1,1-6.22.73-11.39,5.2-16,9-2.62,2.16-3.81,3.49-6,6-8.05,9.22-12.91,20.51-12,33h26c1.54,8.68,5.8,16.19,14,20s17.82,2.98,25-2c2.64-1.83,4.87-4.13,6.84-6.66l5.16-11.34c.4.16,1.36-.06,2,0,5.32.51,15.21.52,20.55.04,1.22-.11,1.76.35,2.45-1.04.08-.15.03-.7,0-1-.88-9.73-2.86-17.24-8-25.55-.81-1.32-.87-2.92-3-2.45-1.77-2.61-7.71-9.64-10.09-11.41-3.51-2.6-10.73-3.85-12.65-5.84-2.91-3.02,1.42-13.7-7.75-20.76-1.85-1.42-3.28-1.3-4.5-1.99v-46c2.16-.74,12.3,5.96,14.92,7.58,5.99,3.72,11.63,7.97,17.08,12.42s9.81,9.02,15,14c.34.33.65.68,1,1,.96,1.35,1.97,2.7,3,4,6.5,8.22,14.02,17.83,19,27,25.6,47.11,17.98,98.33,19,150l-165.52-.02c-6.32.53-9.25,6.36-6.48,12.02,2.14,4.38,6.77,4.25,11.01,3.99v107.01c-.63.11-1.49-.16-2.01,0h-43v-254c-1.29-2.72-3.61-3.68-6.48-4.02-30.28-3.58-67.51,2.73-98.52.02,4.59-13.32,12.57-25.83,21-37,2.63-3.48,5.35-6.36,8-10,2.03-.78,2.78-2.58,4-4,.3-.34.67-.68,1-1l3-3c3.18-2.78,8.7-7.56,12-10,45.42-33.64,103.34-42.99,157-24Z"/>
      <path class="cls-11" d="M370,288c6.65-.06,13.35.03,20,0,.67,0,1.33,0,2,0,1.33,0,2.67,0,4,0s2.67,0,4,0c1.67,0,3.33,0,5,0s3.33,0,5,0c12.94.04,28.45-1.11,41,0,.63.06,1.62-.16,2,0v241c.21,1.56.23,1.89-1.43,2.08-13.44,1.51-29.8-1.28-43.57-.08-.66,0-1.34-.05-2,0-7.28,1.45-11.42-5.42-16-10-.33-.33-.68-.66-1-1l-17.8-25.7c-10.17-17.75-18.75-42.08-21.2-62.3-.28-2.31,1.02-4.32.9-6.39-2.11-36.13-3.98-88.63,3.1-123.61.95-4.67,1.62-9.34,3.1-13.9,4.28-.24,8.61-.07,12.9-.1ZM437,428c.11-.11,1.31.19,1.64-.32,7-10.64-4.46-22.46-14.6-16.13-12.41,7.75-.85,26.55,12.26,18.47.92-.57.57-1.9.69-2.02Z"/>
      <path class="cls-14" d="M653,493c-.6,4.55-13.38,20.77-17,25-2.09,2.45-4.76,5.88-7,8-1.53,1.45-3.58,2.74-5.02,4.49l-95.98.51v-38.01s125,0,125,0Z"/>
      <path class="cls-14" d="M603,547c2.28.4-3.87,4.07-5,5-42.27,25.3-92.67,31.27-139.52,15.02-13.95-4.84-25.63-12.01-38.48-19.02-.05-.95.28-.86,1-1h182Z"/>
      <path class="cls-9" d="M672,424c.56.54.93,1.22,1,2h-143v50l132-1c-.46.92-.69,1.91-1.16,2.82l-131.84.18-1-1v-53c.31-.08.68.06,1,0h143Z"/>
      <path class="cls-3" d="M598,552c-8.91,7.32-21.41,13.23-32.8,17.71-7.02,2.76-17.55,4.75-26,6-41.56,6.15-81.86-1.59-115.96-24.45-.97-.65-3.19-2.02-3.25-3.26,12.85,7.01,24.53,14.18,38.48,19.02,46.85,16.25,97.25,10.28,139.52-15.02Z"/>
      <polygon class="cls-6" points="468 531 467 277 468 277 468 531"/>
      <path class="cls-2" d="M528,531c-1.66-1.04-1-3.79-1.02-5.49-.11-9.21-.65-20.03-.03-29.06.08-1.23.31-5.17,1.71-5.5l123.74.02c.97-.12.68,1.35.6,2.02h-125.01s0,38,0,38Z"/>
      <path class="cls-6" d="M454,529h-1v-241c1.44.61.91,1.24,1.05,2.44l-.05,238.56Z"/>
      <path class="cls-5" d="M412,208c-.1-2.18,1.42-2.64,2.86-3.64,44.98-30.88,98.88-41.5,151.17-22.85,1.59.57,3.55-.23,2.97,2.48-53.66-18.99-111.58-9.64-157,24Z"/>
      <path class="cls-5" d="M468,277h-1l-2.49-2.07-101.88.11c-1.23-.26-.45-1.49-.64-2.04h1c31.01,2.7,68.24-3.6,98.52-.02,2.87.34,5.19,1.3,6.48,4.02Z"/>
      <path class="cls-2" d="M674,408c-1.02-51.67,6.6-102.89-19-150l6.88,10.62c16.82,37.6,14.84,92.46,13.74,133.71-.04,1.64-.44,4.49-1.62,5.67Z"/>
      <path class="cls-2" d="M672,447c-2.23,10.79-4.56,22.79-10.66,31.84l-132.34-.84,131.84-.18c.47-.91.7-1.9,1.16-2.82,1.95-3.92,6.22-15,6-19,.97-.38.79-1.24,1-2,.7-2.5,1.06-4.35,1-7h2Z"/>
      <path class="cls-6" d="M674,408c-.77.78-1.08,1.22-2.4,1.06l-161.11-.06c-3.08.68-7.92,1-8.32,4.73-.25,2.32,1.65,4.81-.18,6.28-2.77-5.66.15-11.49,6.48-12.02l165.52.02Z"/>
      <path class="cls-2" d="M370,288c-2.41-1.89-6.56-.93-9.52-1-.87-.02-3.6.4-1.98-1.01h93.99s-1.5,2-1.5,2c-12.55-1.11-28.06.04-41,0-.66-1.58-4.34-1.58-5,0-1.67,0-3.33,0-5,0-.32-1.5-3.59-1.56-4,0-1.33,0-2.67,0-4,0l-.51-.99-1.49.99c-6.65.03-13.35-.06-20,0Z"/>
      <path class="cls-6" d="M354,302c-7.08,34.98-5.21,87.47-3.1,123.61.12,2.08-1.18,4.09-.9,6.39h-1c-2.29-30.46-1.68-75.74-.04-106.54.36-6.77,1.56-15.45,2.9-22.12.46-2.3-.64-3.14,2.14-1.34Z"/>
      <path class="cls-6" d="M672,423v1h-143c1.04-1.66,3.79-1,5.49-1.02,45.82-.57,91.71.75,137.51.02Z"/>
      <rect class="cls-6" x="514" y="424" width="1" height="107"/>
      <rect class="cls-6" x="528" y="532" width="96" height="1"/>
      <path class="cls-5" d="M389,520c-21.4-22.23-37.61-56.23-40-88h1c2.45,20.22,11.03,44.55,21.2,62.3l17.8,25.7Z"/>
      <path class="cls-6" d="M408,531c12.37.15,25.72.82,38.51.98,1.69.02,4.45-.64,5.49,1.02h-51c.79-.58,4.44-1.96,5-2,.66-.05,1.34,0,2,0Z"/>
      <polygon class="cls-6" points="528 477 527 425 528 425 528 477"/>
      <path class="cls-6" d="M513,531l-.6,2.02-44.4-.03c-.23-1.74,2.27-.94,3.48-.99,12.12-.5,25.18.92,37.09.04,1.38-.1,1.83-.86,2.42-1.04.51-.16,1.38.11,2,0Z"/>
      <path class="cls-5" d="M452,533c-1.04-1.66-3.79-1-5.49-1.02-12.79-.16-26.14-.83-38.51-.98,13.77-1.21,30.13,1.59,43.57.08,1.66-.19,1.64-.51,1.43-2.08h1l-2,4Z"/>
      <path class="cls-16" d="M673,441l-1-1c.08-1.58.12-3.43,0-5,.97-.27.94-1.15,1-2,.16-2.08.18-4.94,0-7-.07-.78-.44-1.46-1-2v-1c.16,0,.85-1.61,2.01-.55,3.12,2.85-.42,14.65-1.01,18.55Z"/>
      <path class="cls-2" d="M384,236c-8.43,11.17-16.41,23.68-21,37h-1c-.15-.43-1-.37-.6-1.94.55-2.22,7.18-14.64,8.78-17.38,2.79-4.75,7.51-11.34,10.85-15.9.1-.14,2.83-3.76,2.97-1.78Z"/>
      <path class="cls-5" d="M390,521c4.58,4.58,8.72,11.45,16,10-.56.04-4.21,1.42-5,2-3.77-3.4-9.12-7.19-11-12Z"/>
      <path class="cls-2" d="M636,518l-4.02,6.48-2.98,1.52c2.24-2.12,4.91-5.55,7-8Z"/>
      <path class="cls-2" d="M673,441c-.19,1.24.22,2.8,0,4h-2c.19-.23-.1-2.19,0-3,.44-.15.94-.55,1-1,.05-.32-.02-.67,0-1l1,1Z"/>
      <path class="cls-2" d="M632,226c-5.19-4.98-9.38-9.41-15-14l6.01,3.49c2.74,3.49,7.73,6.1,8.99,10.51Z"/>
      <path class="cls-9" d="M671,445h2c-.11.61-.87,1.37-1,2h-2c0-.1-1.71-1.04-.88-1.84.46-.44,1.75-.01,1.88-.16Z"/>
      <path class="cls-2" d="M397,221c1.05-1.02,1.68-1.84,3-3l-3,3Z"/>
      <path class="cls-2" d="M392,226c1.16-1.59,2.12-3.14,4-4-1.22,1.42-1.97,3.22-4,4Z"/>
      <path class="cls-16" d="M528,425h-1c.05-.76.37-.83,1-1v1Z"/>
      <path class="cls-2" d="M636,231c-1.03-1.3-2.04-2.65-3-4,1.23,1.12,2.98,1.96,3.98,3.51l-.98.49Z"/>
      <g>
        <path class="cls-13" d="M593,309c-.79,2.83-1.36,6.97-4.35,8.61-6.49,3.56-14.87,3.14-19.65-2.61-2.22-2.66-3.07-3.31-3-7,8.78.62,18.51-1.29,27,1Z"/>
        <path class="cls-15" d="M541,275l-8.06,16.44c.18,4.93-5.99,13.85.51,14.6,3.57.41,20.87-2.05,22.47-.98.57.39,2.72,10.8,4.09,13.21.31.54,8.41,8.48,8.99,8.72v1c-8.2-3.81-12.46-11.32-14-20h-26c-.91-12.49,3.95-23.78,12-33Z"/>
        <path class="cls-4" d="M594,307c.04.8-.87,1.54-1,2-8.49-2.29-18.22-.38-27-1,.01-.73-.44-2.12.6-2.02,4.98.89,24.77-1.54,27.4,1.02Z"/>
        <path class="cls-6" d="M574,238v-52c1.13.98.89.99,1.06,2.4,1.23,10.54.95,35.36,0,46.19-.17,1.98-.15,1.82-1.06,3.4Z"/>
        <path class="cls-6" d="M585,238c-1.28-.73-.91-1.2-1.05-2.41-1.11-9.52-.74-30.26.03-40.12.1-1.27-.61-2.91,1.03-3.47v46Z"/>
        <path class="cls-3" d="M620,278c2.13-.46,2.18,1.14,3,2.45,5.14,8.31,7.12,15.82,8,25.55h-3c1.09-1.69,1.19-3.48.96-5.43-.68-5.72-5.55-17.53-8.96-22.57Z"/>
        <path class="cls-5" d="M594,325v1c-7.18,4.98-17.04,5.7-25,2v-1c7.28,3.02,18.24,2.1,25-2Z"/>
        <path class="cls-3" d="M569,315c4.78,5.74,13.16,6.16,19.65,2.61,2.99-1.64,3.56-5.77,4.35-8.61.13-.46,1.04-1.2,1-2,3.64,3.53-6.23,14.09-10.67,14.69-.75.1-8.78-.66-9.63-.9-.37-.1-7.56-4.37-4.71-5.79Z"/>
        <path class="cls-6" d="M628,306h3c.03.3.08.85,0,1-7.43.61-15.9-1.29-23,1-.64-.06-1.6.16-2,0-.24-.1-.64-1.56-1-2h23Z"/>
        <path class="cls-4" d="M606,308l-5.16,11.34c-1.97,2.53-4.2,4.83-6.84,6.66v-1c6.47-3.93,8.69-18.29,11-19,.36.44.76,1.9,1,2Z"/>
        <path class="cls-2" d="M573,239c-2.49,2.87-4.27,2.95-6.18,7.32-2.02,4.62-.99,8.73-2.82,12.68-.87-8.17.45-16.73,9-20Z"/>
        <path class="cls-2" d="M563,260c-.32.31-.44,1.17-1.06,1.43l-14.94,7.57c4.61-3.8,9.78-8.27,16-9Z"/>
        <path class="cls-4" d="M631,307c-.69,1.39-1.23.94-2.45,1.04-5.34.47-15.23.47-20.55-.04,7.1-2.29,15.57-.39,23-1Z"/>
      </g>
      <path class="cls-16" d="M437,428c-.12.12.23,1.45-.69,2.02-13.12,8.07-24.68-10.72-12.26-18.47,10.14-6.33,21.59,5.49,14.6,16.13-.34.51-1.54.21-1.64.32,1.76-1.09,2.34-7.43,2.07-9.55-.04-.29-2.86-4.72-3.07-4.92-3.01-2.79-10-2.45-12.98-.01-2.38,1.95-2.63,11.39-.54,13.44,2.51,2.46,11.92,2.64,14.52,1.04Z"/>
      <path class="cls-10" d="M410,288c-1.67,0-3.33,0-5,0,.66-1.58,4.34-1.58,5,0Z"/>
      <path class="cls-10" d="M400,288c-1.33,0-2.67,0-4,0,.41-1.56,3.68-1.5,4,0Z"/>
      <path class="cls-10" d="M392,288c-.67,0-1.33,0-2,0l1.49-.99.51.99Z"/>
      <path class="cls-13" d="M673,426c.18,2.06.16,4.92,0,7-3.95-.4-1.04,1.52-1,2,.12,1.57.08,3.42,0,5-.02.33.05.68,0,1-.47.11-.94.54-1,1-.1.81.19,2.77,0,3-.12.14-1.41-.28-1.88.16-.83.8.87,1.74.88,1.84.06,2.65-.3,4.5-1,7-3.94-.39-1.03,1.49-1,2,.22,4-4.05,15.08-6,19l-132,1v-50h143ZM578,444c-.65.06-1.51-.15-2,0l-.51-.99c-1.55-.23-1.71-.07-1.48,1.48l.99.51c-2.28,2.29-2.55,4.98-1.47,7.97.22.61,1.31.78,1.47,1.03.17.26-.35,1.4.63,2.07,1.91,1.33,29.7,1.41,33.94.99,4.2-.42,3.57-1.39,6.44-3.06.38-.22,1.79.25,2,0,.83-1.02-.99-2.84-1-3-.03-.64-.06-1.36,0-2,.01-.11,1.59-1.28,1-1.99-.1-.12-2.14-.39-3-1.01-.38-.28-.75-.9-1-1s-.56-.89-1-1c-.29-.07-.66.04-1,0,.56-3.03-1.53-1.92-3.45-2-8.95-.35-18.14-.07-27.06.07-1.92.03-4.03-1.19-3.49,1.93Z"/>
      <path class="cls-9" d="M669,454c-.21.76-.03,1.62-1,2-.03-.51-2.94-2.39,1-2Z"/>
      <path class="cls-9" d="M673,433c-.06.85-.03,1.73-1,2-.04-.48-2.95-2.4,1-2Z"/>
      <path class="cls-9" d="M671,442c.06-.46.53-.89,1-1-.06.45-.56.85-1,1Z"/>
      <path class="cls-7" d="M437,428c-2.6,1.6-12.01,1.42-14.52-1.04-2.09-2.05-1.84-11.48.54-13.44,2.98-2.44,9.97-2.77,12.98.01.21.2,3.04,4.63,3.07,4.92.26,2.12-.31,8.47-2.07,9.55Z"/>
      <path class="cls-2" d="M578,444c8.29-.79,25.78-.87,34,0,.34.04.71-.07,1,0l1,1c.25.1.62.72,1,1l2,3c-.06.64-.03,1.36,0,2l-1,3c-2.87,1.67-2.24,2.65-6.44,3.06-4.24.42-32.02.34-33.94-.99-.97-.67-.45-1.81-.63-2.07,2.54,2.56,31.62.11,37.35.78,2.54-1.05,2.78-4.81,2.72-7.13-.64-2.79-15.58-1.25-18.55-1.66-5.45-.46-15.71-1.76-20.83-.02-1.62.55-1.74,6.96-.68,8.02-.16-.25-1.25-.43-1.47-1.03-1.08-2.99-.81-5.68,1.47-7.97.27-.27.93-.98,1-1,.49-.15,1.35.06,2,0Z"/>
      <path class="cls-9" d="M578,444c-.54-3.12,1.56-1.91,3.49-1.93,8.92-.13,18.11-.42,27.06-.07,1.93.08,4.01-1.03,3.45,2-8.22-.87-25.71-.79-34,0Z"/>
      <path class="cls-9" d="M617,451c0,.16,1.82,1.97,1,3-.21.26-1.62-.22-2,0l1-3Z"/>
      <path class="cls-9" d="M615,446c.86.63,2.9.89,3,1.01.59.7-.99,1.88-1,1.99l-2-3Z"/>
      <path class="cls-9" d="M576,444c-.07.02-.73.73-1,1l-.99-.51c-.23-1.55-.07-1.71,1.48-1.48l.51.99Z"/>
      <path class="cls-9" d="M614,445l-1-1c.44.11.76.9,1,1Z"/>
      <path class="cls-10" d="M575,454c-1.06-1.07-.94-7.47.68-8.02,5.12-1.74,15.38-.43,20.83.02,2.97.41,17.92-1.13,18.55,1.66.07,2.31-.18,6.07-2.72,7.13-5.73-.67-34.81,1.78-37.35-.78Z"/>
    </g>
  </g>
</svg>